# AST/ASF file generated using VICON BodyLanguage
# -----------------------------------------------
:version 1.10
:name VICON
:units
  mass 1.0
  length 0.45
  angle deg
:documentation
   .ast/.asf automatically generated from VICON data using
   VICON BodyBuilder and BodyLanguage model FoxedUp or BRILLIANT.MOD
:root
   order TX TY TZ RX RY RZ
   axis XYZ
   position 0 0 0  
   orientation 0 0 0 
:bonedata
  begin
     id 1 
     name lhipjoint
     direction 0.707368 -0.647095 0.284426 
     length 2.60678 
     axis 0 0 0  XYZ
  end
  begin
     id 2 
     name lfemur
     direction 0.34202 -0.939693 0  
     length 6.63812  
     axis 0 0 20  XYZ
    dof rx ry rz
    limits (-160.0 20.0)
           (-70.0 70.0)
           (-60.0 70.0)
  end
  begin
     id 3 
     name ltibia
     direction 0.34202 -0.939693 0   
     length 7.51178   
     axis 0 0 20   XYZ
    dof rx
    limits (-10.0 170.0)
  end
  begin
     id 4 
     name lfoot
     direction 0.121251 -0.333133 0.935051   
     length 1.83716   
     axis -90 7.62852e-016 20   XYZ
    dof rx rz
    limits (-45.0 90.0)
           (-70.0 20.0)
  end
  begin
     id 5 
     name ltoes
     direction 1.53611e-011 -4.21962e-011 1   
     length 0.916133   
     axis -90 7.62852e-016 20   XYZ
    dof rx
    limits (-90.0 20.0)
  end
  begin
     id 6 
     name rhipjoint
     direction -0.692419 -0.660507 0.290321   
     length 2.55385  
     axis 0 0 0  XYZ 
  end
  begin
     id 7 
     name rfemur
     direction -0.34202 -0.939693 0   
     length 7.29079   
     axis 0 0 -20   XYZ
    dof rx ry rz
    limits (-160.0 20.0)
           (-70.0 70.0)
           (-70.0 60.0)
  end
  begin
     id 8 
     name rtibia
     direction -0.34202 -0.939693 0   
     length 7.47143   
     axis 0 0 -20   XYZ
    dof rx
    limits (-10.0 170.0)
 end
 begin
     id 9 
     name rfoot
     direction -0.119907 -0.329441 0.936532   
     length 1.79439  
     axis -90 -7.62852e-016 -20   XYZ
    dof rx rz
    limits (-45.0 90.0)
           (-20.0 70.0)
  end
  begin
     id 10 
     name rtoes
     direction -1.53571e-011 -4.21961e-011 1   
     length 0.896039   
     axis -90 -7.62852e-016 -20   XYZ
    dof rx
    limits (-90.0 20.0)
  end
  begin
     id 11 
     name lowerback
     direction 0.0367721 0.992912 -0.113016   
     length 1.73542   
     axis 0 0 0   XYZ
    dof rx ry rz
    limits (-20.0 45.0)
           (-30.0 30.0)
           (-30.0 30.0)
  end
  begin
     id 12 
     name upperback
     direction -0.000314626 0.990678 0.136227   
     length 1.7514   
     axis 0 0 0   XYZ
    dof rx ry rz
    limits (-20.0 45.0)
           (-30.0 30.0)
           (-30.0 30.0)
  end
  begin
     id 13 
     name thorax
     direction -0.0226159 0.981151 0.191917   
     length 1.71471   
     axis 0 0 0   XYZ
    dof rx ry rz
    limits (-20.0 45.0)
           (-30.0 30.0)
           (-30.0 30.0)
  end
  begin
     id 14 
     name lowerneck
     direction 0.0219333 0.998071 0.0580739   
     length 1.65882   
     axis 0 0 0   XYZ
    dof rx ry rz
    limits (-20.0 45.0)
           (-30.0 30.0)
           (-30.0 30.0)
  end
  begin
     id 15 
     name upperneck
     direction 0.0384529 0.980058 -0.194957   
     length 1.6612   
     axis 0 0 0   XYZ
    dof rx ry rz
    limits (-20.0 45.0)
           (-30.0 30.0)
           (-30.0 30.0)
  end
  begin
     id 16
     name head
     direction 0.00592123 0.997421 -0.0715234  
     length 1.68077  
     axis 0 0 0   XYZ
    dof rx ry rz
    limits (-20.0 45.0)
           (-30.0 30.0)
           (-30.0 30.0)
  end
  begin
     id 17 
     name lclavicle
     direction 0.904803 0.417826 0.0821728  
     length 3.42227  
     axis 0 0 0   XYZ
    dof ry rz
    limits (-20.0 10.0)
           (0.0 20.0)
  end
  begin
     id 18 
     name lhumerus
     direction 1 -4.48965e-011 -2.68786e-027   
     length 5.11878   
     axis -180 -30 -90   XYZ
    dof rx ry rz
    limits (-60.0 90.0)
           (-90.0 90.0)
           (-90.0 90.0)
  end
  begin
     id 19
     name lradius
     direction 1 -4.48965e-011 2.61168e-028   
     length 3.59971   
     axis -180 -30 -90   XYZ
    dof rx
    limits (-10.0 170.0)
  end
  begin
     id 20
     name lwrist
     direction 1 -4.48965e-011 1.58672e-027   
     length 1.79985   
     axis -1.65735e-015 90 90   XYZ
    dof ry
    limits (-180.0 0.0)
 end
  begin
     id 21 
     name lhand
     direction 1 -4.48942e-011 3.17344e-027   
     length 0.62877   
     axis -2.02492e-015 90 90   XYZ
    dof rx rz
    limits (-90.0 90.0)
           (-45.0 45.0)
  end
  begin
     id 22 
     name lfingers
     direction 1 -4.49011e-011 6.34687e-027   
     length 0.506931   
     axis -4.04985e-015 90 90   XYZ
    dof rx
    limits (0.0 90.0)
  end
  begin
     id 23
     name lthumb
     direction 0.707107 -6.34982e-011 0.707107   
     length 0.727854   
     axis -90 45 2.85299e-015   XYZ
    dof rx rz
    limits (-45.0 45.0)
           (-45.0 45.0)
  end
  begin
     id 24 
     name rclavicle
     direction -0.945647 0.32488 0.0143075   
     length 3.52737  
     axis 0 0 0   XYZ 
    dof ry rz
    limits (-10.0 20.0)
           (-20.0 0.0)
  end
  begin
     id 25 
     name rhumerus
     direction -1 -4.48962e-011 1.92182e-027  
     length 5.4902   
     axis -180 30 90   XYZ
    dof rx ry rz
    limits (-90.0 60.0)
           (-90.0 90.0)
           (-90.0 90.0)
  end
  begin
     id 26 
     name rradius
     direction -1 -4.48967e-011 -5.97193e-028   
     length 3.20659   
     axis -180 30 90   XYZ
    dof rx
    limits (-10.0 170.0)
  end
  begin
     id 27 
     name rwrist
     direction -1 -4.48964e-011 1.58672e-027   
     length 1.6033   
     axis -1.65735e-015 -90 -90   XYZ
    dof ry
    limits (-180.0 0.0)
  end
  begin
     id 28
     name rhand
     direction -1 -4.49006e-011 3.17344e-027   
     length 0.691885   
     axis -2.02492e-015 -90 -90   XYZ
    dof rx rz
    limits (-90.0 90.0)
           (-45.0 45.0)
  end
  begin
     id 29
     name rfingers
     direction -1 -4.48908e-011 6.34687e-027   
     length 0.557815   
     axis -4.04985e-015 -90 -90   XYZ
    dof rx
    limits (0.0 90.0)
  end
  begin
     id 30
     name rthumb
     direction -0.707107 -6.34999e-011 0.707107   
     length 0.800915   
     axis -90 -45 -2.85299e-015   XYZ
    dof rx rz
    limits (-45.0 45.0)
           (-45.0 45.0)
  end
:hierarchy
  begin
    root lhipjoint rhipjoint lowerback
    lhipjoint lfemur
    lfemur ltibia
    ltibia lfoot
    lfoot ltoes
    rhipjoint rfemur
    rfemur rtibia
    rtibia rfoot
    rfoot rtoes
    lowerback upperback
    upperback thorax
    thorax lowerneck lclavicle rclavicle
    lowerneck upperneck
    upperneck head
    lclavicle lhumerus
    lhumerus lradius
    lradius lwrist
    lwrist lhand lthumb
    lhand lfingers
    rclavicle rhumerus
    rhumerus rradius
    rradius rwrist
    rwrist rhand rthumb
    rhand rfingers
  end

#!OML:ASF I:\Actors\actors\Patient Classification 1\Patient 1\Session 1\Subject1.ASF
:FULLY-SPECIFIED
:DEGREES
81
root 0.575727 17.5381 7.99825 8.15442 -4.12035 -6.437
lowerback 9.84208 2.21426 8.84126
upperback -10.2973 4.1382 -3.49871
thorax -16.4572 0.53419 -10.0123
lowerneck -4.61636 11.1266 9.16965
upperneck 45.258 14.3686 4.42302
head 18.0807 8.07159 2.77589
rclavicle 1.09332e-014 2.38542e-014
rhumerus -51.2013 -23.6897 -74.1657
rradius 20.2983
rwrist 40.0725
rhand 4.19033 -26.8385
rfingers 7.12502
rthumb 29.5974 -54.4979
lclavicle 1.09332e-014 2.38542e-014
lhumerus -41.3419 37.4655 54.171
lradius 13.61
lwrist -53.7476
lhand -15.4673 -15.022
lfingers 7.12502
lthumb 10.714 14.6848
rfemur -2.19633 24.9553 22.633
rtibia 1.7261
rfoot -10.7798 -23.1864
rtoes 0.714546
lfemur 6.12044 -38.532 -14.6784
ltibia -3.77678
lfoot -15.8689 46.5508
ltoes 3.89492
82
root 0.575849 17.5374 7.99539 8.14766 -4.08591 -6.45373
lowerback 9.74411 2.3246 8.94295
upperback -10.1232 4.28895 -3.52058
thorax -16.1281 0.626147 -10.1014
lowerneck -5.19381 10.766 8.49047
upperneck 45.7006 13.5699 5.1906
head 18.2981 7.72364 3.17302
rclavicle 4.96962e-015 -9.54166e-015
rhumerus -51.0011 -24.1345 -73.8827
rradius 20.2705
rwrist 40.2579
rhand 4.19738 -26.701
rfingers 7.12502
rthumb 29.6041 -54.3592
lclavicle 4.96962e-015 -9.54166e-015
lhumerus -40.8168 37.646 54.6382
lradius 13.4639
lwrist -54.0514
lhand -15.5994 -15.2085
lfingers 7.12502
lthumb 10.5866 14.5048
rfemur -2.19459 24.8917 22.6469
rtibia 1.71275
rfoot -10.7645 -23.1729
rtoes 0.617179
lfemur 6.09638 -38.4996 -14.6327
ltibia -3.78132
lfoot -15.8686 46.475
ltoes 3.92486
83
root 0.576041 17.5356 7.99094 8.15286 -4.06764 -6.50302
lowerback 9.33845 2.42003 8.95314
upperback -9.72123 4.37951 -3.41504
thorax -15.3419 0.761807 -9.92336
lowerneck -5.93874 10.5458 8.0155
upperneck 46.1105 13.1873 5.38324
head 18.6607 7.49093 3.37439
rclavicle -1.55052e-014 -2.8625e-014
rhumerus -50.1688 -24.4148 -73.7931
rradius 20.1341
rwrist 40.2896
rhand 4.12277 -26.6806
rfingers 7.12502
rthumb 29.5329 -54.3514
lclavicle -1.55052e-014 -2.8625e-014
lhumerus -40.1146 38.4903 55.1987
lradius 13.3078
lwrist -54.6102
lhand -15.7382 -15.1407
lfingers 7.12502
lthumb 10.4527 14.5795
rfemur -2.23228 24.8375 22.6863
rtibia 1.73826
rfoot -10.7572 -23.1148
rtoes 0.708522
lfemur 6.0721 -38.5095 -14.5598
ltibia -3.77761
lfoot -15.9636 46.4545
ltoes 4.10118
84
root 0.575535 17.5351 7.98682 8.14355 -4.03278 -6.51689
lowerback 9.43692 2.56387 9.13736
upperback -9.64622 4.60494 -3.4945
thorax -15.2424 0.851522 -10.1677
lowerneck -6.2749 10.2068 7.7466
upperneck 46.6227 12.5518 5.75362
head 19.0027 7.2256 3.5638
rclavicle -1.64991e-014 9.54166e-015
rhumerus -50.1567 -24.8565 -73.5166
rradius 20.0824
rwrist 40.2715
rhand 3.98046 -26.6382
rfingers 7.12502
rthumb 29.397 -54.333
lclavicle -1.64991e-014 9.54166e-015
lhumerus -39.6424 38.3821 55.6927
lradius 13.2303
lwrist -54.7995
lhand -15.7579 -15.1101
lfingers 7.12502
lthumb 10.4337 14.611
rfemur -2.24591 24.8156 22.7057
rtibia 1.76257
rfoot -10.7373 -23.1212
rtoes 0.617223
lfemur 6.03056 -38.4505 -14.5026
ltibia -3.77107
lfoot -15.926 46.3744
ltoes 4.11591
85
root 0.574706 17.5356 7.98353 8.13111 -3.9968 -6.53451
lowerback 9.59138 2.55519 9.19179
upperback -9.71983 4.61448 -3.54519
thorax -15.426 0.825774 -10.2836
lowerneck -6.12945 9.95237 7.87407
upperneck 47.1091 12.0669 5.94331
head 19.2862 7.0697 3.59565
rclavicle 1.35174e-014 -1.43125e-014
rhumerus -50.4127 -24.976 -73.4406
rradius 20.0832
rwrist 40.3928
rhand 3.9112 -26.5315
rfingers 7.12502
rthumb 29.3309 -54.2379
lclavicle 1.35174e-014 -1.43125e-014
lhumerus -39.5492 37.7772 55.9342
lradius 13.2851
lwrist -54.3063
lhand -15.6839 -15.0799
lfingers 7.12502
lthumb 10.5051 14.6376
rfemur -2.24047 24.8415 22.7352
rtibia 1.77322
rfoot -10.8125 -23.167
rtoes 0.895324
lfemur 6.02519 -38.4846 -14.4699
ltibia -3.78317
lfoot -15.8556 46.3968
ltoes 4.00985
86
root 0.574857 17.5354 7.98067 8.1505 -3.98649 -6.55483
lowerback 9.79713 2.39038 9.09634
upperback -9.96333 4.39982 -3.56098
thorax -15.9239 0.68003 -10.2505
lowerneck -5.61397 9.80172 8.34918
upperneck 47.6481 11.765 5.9767
head 19.5769 7.02762 3.50981
rclavicle 3.39922e-014 -1.59028e-014
rhumerus -50.938 -24.8065 -73.5303
rradius 20.0866
rwrist 40.7176
rhand 3.93146 -26.4185
rfingers 7.12502
rthumb 29.3503 -54.1215
lclavicle 3.39922e-014 -1.59028e-014
lhumerus -39.8908 36.6805 55.8506
lradius 13.4556
lwrist -53.1826
lhand -15.6062 -15.1077
lfingers 7.12502
lthumb 10.58 14.6059
rfemur -2.28617 24.8399 22.7358
rtibia 1.79083
rfoot -10.8581 -23.1532
rtoes 1.10324
lfemur 6.02842 -38.6331 -14.4582
ltibia -3.80702
lfoot -15.9259 46.5463
ltoes 4.06879
87
root 0.574962 17.5346 7.97801 8.18334 -3.95949 -6.56812
lowerback 9.71179 2.28007 8.95944
upperback -9.96169 4.22415 -3.49338
thorax -15.9202 0.620694 -10.0487
lowerneck -5.13799 9.6239 8.90012
upperneck 47.8423 11.5392 5.62889
head 19.6953 6.98614 3.20681
rclavicle -3.33958e-014 5.56597e-014
rhumerus -50.9164 -24.7717 -73.554
rradius 20.0162
rwrist 41.0265
rhand 3.915 -26.3798
rfingers 7.12502
rthumb 29.3346 -54.0856
lclavicle -3.33958e-014 5.56597e-014
lhumerus -39.9252 36.3477 55.9427
lradius 13.5157
lwrist -52.6084
lhand -15.6548 -15.2064
lfingers 7.12502
lthumb 10.5332 14.5097
rfemur -2.33606 24.8399 22.7299
rtibia 1.78511
rfoot -10.7883 -23.1766
rtoes 0.865316
lfemur 5.98447 -38.7034 -14.4112
ltibia -3.82142
lfoot -15.9335 46.5988
ltoes 4.29069
88
root 0.574503 17.5339 7.97472 8.20755 -3.917 -6.59975
lowerback 9.20257 2.19733 8.73455
upperback -9.60904 4.03815 -3.26391
thorax -15.2153 0.653692 -9.5345
lowerneck -5.55934 9.53159 8.81101
upperneck 48.3033 11.4083 5.53416
head 20.1414 6.88124 3.24215
rclavicle 3.10104e-014 -2.70347e-014
rhumerus -50.0741 -24.6582 -73.668
rradius 19.8821
rwrist 41.2477
rhand 3.85499 -26.3459
rfingers 7.12502
rthumb 29.2772 -54.0616
lclavicle 3.10104e-014 -2.70347e-014
lhumerus -39.6646 37.2099 56.1544
lradius 13.4724
lwrist -52.8116
lhand -15.7296 -15.0601
lfingers 7.12502
lthumb 10.461 14.6596
rfemur -2.36797 24.884 22.7643
rtibia 1.78095
rfoot -10.742 -23.2598
rtoes 0.595455
lfemur 5.90819 -38.6873 -14.3129
ltibia -3.80742
lfoot -15.8897 46.5431
ltoes 4.48791
89
root 0.574752 17.5337 7.97169 8.22452 -3.89052 -6.61237
lowerback 9.65635 2.22556 8.90302
upperback -9.89361 4.14382 -3.39777
thorax -15.8264 0.609013 -9.87615
lowerneck -5.20868 9.18963 8.83558
upperneck 48.7635 10.707 5.97426
head 20.3303 6.66796 3.35502
rclavicle 5.26779e-014 -3.81667e-014
rhumerus -50.7985 -24.7912 -73.5016
rradius 19.9715
rwrist 41.2252
rhand 3.78572 -26.2903
rfingers 7.12502
rthumb 29.2111 -54.0176
lclavicle 5.26779e-014 -3.81667e-014
lhumerus -39.8722 36.2377 56.2055
lradius 13.5355
lwrist -52.4054
lhand -15.6612 -14.8051
lfingers 7.12502
lthumb 10.527 14.9113
rfemur -2.4061 24.8894 22.7689
rtibia 1.7991
rfoot -10.7545 -23.2824
rtoes 0.672424
lfemur 5.87746 -38.7636 -14.2838
ltibia -3.79905
lfoot -16.0236 46.5795
ltoes 4.51264
